HIERARCHY
ROOT Hips
{
	OFFSET 0.00000 0.00000 0.00000
	CHANNELS 6 Xposition Yposition Zposition Zrotation Yrotation Xrotation 
	JOINT LHipJoint
	{
		OFFSET 0 0 0
		CHANNELS 3 Zrotation Yrotation Xrotation
		JOINT LeftHip
		{
			OFFSET 1.40252 -1.71424 0.59123
			CHANNELS 3 Zrotation Yrotation Xrotation
			JOINT LeftKnee
			{
				OFFSET 2.50071 -6.87065 0.00000
				CHANNELS 3 Zrotation Yrotation Xrotation
				JOINT LeftAnkle
				{
					OFFSET 2.50834 -6.89162 0.00000
					CHANNELS 3 Zrotation Yrotation Xrotation
					JOINT LeftToe
					{
						OFFSET 0.21528 -0.59149 1.64448
						CHANNELS 3 Zrotation Yrotation Xrotation
						End Site
						{
							OFFSET 0.00000 -0.00000 0.87921
						}
					}
				}
			}
		}
	}
	JOINT RHipJoint
	{
		OFFSET 0 0 0
		CHANNELS 3 Zrotation Yrotation Xrotation
		JOINT RightHip
		{
			OFFSET -1.53651 -1.71424 0.59123
			CHANNELS 3 Zrotation Yrotation Xrotation
			JOINT RightKnee
			{
				OFFSET -2.45783 -6.75285 0.00000
				CHANNELS 3 Zrotation Yrotation Xrotation
				JOINT RightAnkle
				{
					OFFSET -2.51921 -6.92147 0.00000
					CHANNELS 3 Zrotation Yrotation Xrotation
					JOINT RightToe
					{
						OFFSET -0.21777 -0.59831 1.59676
						CHANNELS 3 Zrotation Yrotation Xrotation
						End Site
						{
							OFFSET -0.00000 -0.00000 0.85779
						}
					}
				}
			}
		}
	}
	JOINT lowerback
	{
		OFFSET 0 0 0
		CHANNELS 3 Zrotation Yrotation Xrotation
		JOINT Chest
		{
			OFFSET 0.02212 2.07622 0.03776
			CHANNELS 3 Zrotation Yrotation Xrotation
			JOINT Chest2
			{
				OFFSET -0.00949 2.08009 -0.00123
				CHANNELS 3 Zrotation Yrotation Xrotation
				JOINT lowerneck
				{
					OFFSET 0 0 0
					CHANNELS 3 Zrotation Yrotation Xrotation
					JOINT Neck
					{
						OFFSET 0.00288 1.67184 0.11155
						CHANNELS 3 Zrotation Yrotation Xrotation
						JOINT Head
						{
							OFFSET -0.02412 1.66997 -0.22040
							CHANNELS 3 Zrotation Yrotation Xrotation
							End Site
							{
								OFFSET -0.01026 1.69043 -0.08683
							}
						}
					}
				}
				JOINT LeftCollar
				{
					OFFSET 0 0 0
					CHANNELS 3 Zrotation Yrotation Xrotation
					JOINT LeftShoulder
					{
						OFFSET 3.97941 0.74048 0.81462
CHANNELS 3 Zrotation Xrotation Yrotation
						JOINT LeftElbow
						{
OFFSET 0 -5.018340 -0.000000
CHANNELS 3 Zrotation Xrotation Yrotation
							JOINT LeftWrist
							{
OFFSET 0 -3.486900 0.000000
CHANNELS 3 Zrotation Xrotation Yrotation
								JOINT lhand
								{
									OFFSET 0 0 0
CHANNELS 3 Zrotation Xrotation Yrotation
									JOINT LFingers
									{
OFFSET 0 -0.767990 0.000000
CHANNELS 3 Zrotation Xrotation Yrotation
										End Site
										{
OFFSET 0 -0.619170 0.000000
										}
									}
								}
								JOINT LThumb
								{
OFFSET 0 0.000000 0.000000
CHANNELS 3 Zrotation Xrotation Yrotation
									End Site
									{
OFFSET 0 -0.628630 0.628630
									}
								}
							}
						}
					}
				}
				JOINT RightCollar
				{
					OFFSET 0 0 0
					CHANNELS 3 Zrotation Yrotation Xrotation
					JOINT RightShoulder
					{
						OFFSET -3.88702 1.02123 0.44091
CHANNELS 3 Zrotation Xrotation Yrotation
						JOINT RightElbow
						{
OFFSET 0 -4.701640 0.000000
CHANNELS 3 Zrotation Xrotation Yrotation
							JOINT RightWrist
							{
OFFSET 0 -3.499110 0.000000
CHANNELS 3 Zrotation Xrotation Yrotation
								JOINT rhand
								{
									OFFSET 0 0 0
CHANNELS 3 Zrotation Xrotation Yrotation
									JOINT RFingers
									{
OFFSET 0 -0.739330 0.000000
CHANNELS 3 Zrotation Xrotation Yrotation
										End Site
										{
OFFSET 0 -0.596070 0.000000
										}
									}
								}
								JOINT RThumb
								{
OFFSET 0 0.000000 0.000000
CHANNELS 3 Zrotation Xrotation Yrotation
									End Site
									{
OFFSET 0 -0.605170 0.605170
									}
								}
							}
						}
					}
				}
			}
		}
	}
}
MOTION
Frames: 7
Frame Time: 0.008333333333333333
-13.871800 17.499300 -0.758500 -92.505600 86.075800 -86.221000 0.000000 0.000000 0.000000 -15.660000 -5.042300 -5.035600 0.239200 3.147300 8.689000 1.448600 -5.180500 -21.651000 2.830200 10.415000 30.331400 0.000000 0.000000 0.000000 20.192200 6.092500 -16.392000 -1.365900 -7.397100 20.897200 -0.623300 -5.417300 -17.865000 -0.176400 2.705300 -7.459400 4.521900 2.285200 -2.277600 -0.478600 2.902000 2.111800 -2.861700 1.573800 3.709600 -0.217500 -2.847100 -10.945600 -0.537100 -3.719500 9.618800 -0.396100 -1.863600 4.666900 0.000000 -0.000000 0.000000 -0.574600 -9.273900 -43.825500 21.169200 -32.025300 6.139400 37.491300 15.307400 -42.364500 0.000000 0.000000 0.000000 -7.125000 0.000000 0.000000 0.570100 78.955500 -0.450300 0.000000 -0.000000 0.000000 5.755900 3.721700 19.978200 -25.567500 -36.778500 -8.627400 -22.579100 17.667900 -8.482500 0.000000 0.000000 0.000000 7.125000 0.000000 -0.000000 3.101100 20.810600 1.799600
-13.641280 17.607850 -0.622737 -57.932402 84.525049 -47.187819 0.000000 0.000000 0.000000 -14.343755 -2.349797 -9.802424 0.192880 2.828183 7.800890 1.087268 -1.867546 -19.175503 1.263799 7.089512 19.996919 0.000000 0.000000 0.000000 21.408408 10.745832 -16.647866 -0.828197 -5.804003 16.217457 -0.440058 -5.813594 -16.006933 -0.037627 1.246302 -3.426901 5.277480 3.920691 -9.062836 -0.758001 4.694976 0.933970 -3.052854 2.509481 6.563395 0.233860 -3.027083 -10.585906 -1.057194 -3.970601 9.530467 -0.638851 -2.002809 4.559238 0.000000 0.000000 0.000000 -0.422558 -9.379589 -45.580802 23.545748 -34.678568 7.447278 36.558508 13.523783 -43.157387 0.000000 0.000000 0.000000 -7.125000 0.000000 0.000000 -3.009785 79.381535 2.404569 0.000000 0.000000 0.000000 6.198593 2.909687 23.213994 -26.807144 -37.994308 -9.380269 -23.681917 15.981196 -6.829914 0.000000 0.000000 0.000000 7.125000 0.000000 0.000000 2.262985 22.530353 1.224137
-13.570653 17.647914 -0.506908 -54.243563 83.976416 -42.635838 0.000000 0.000000 0.000000 -14.214845 -0.473917 -11.924671 0.203454 2.904017 8.011679 0.600158 1.960281 -15.478693 0.025128 -1.006062 -2.765632 0.000000 0.000000 0.000000 21.946419 11.180890 -16.190371 -0.653471 -5.169940 14.394084 -0.391535 -5.815577 -15.383713 -0.139814 2.403711 -6.623105 6.147192 4.396252 -10.006292 -0.862355 5.189440 0.475077 -3.518908 2.778538 6.751043 0.123865 -3.286653 -10.776082 -1.065345 -4.300627 9.711895 -0.652351 -2.168987 4.646314 0.000000 0.000000 0.000000 -1.002046 -9.346017 -45.665813 24.666517 -35.860911 8.093844 36.242939 13.555433 -43.106384 0.000000 0.000000 0.000000 -7.125000 0.000000 0.000000 -3.626838 79.209969 2.884102 0.000000 0.000000 0.000000 6.207108 2.985131 25.183975 -27.966669 -39.085224 -10.102760 -24.480471 15.524712 -5.157379 0.000000 0.000000 0.000000 7.125000 0.000000 0.000000 1.641199 24.316367 0.820186
-13.515886 17.666539 -0.379193 -52.351585 83.992146 -40.531432 0.000000 0.000000 0.000000 -13.911535 -1.780976 -11.891215 0.238664 3.143694 8.679085 0.593555 3.353804 -16.158496 0.059975 -1.576682 -4.337196 0.000000 0.000000 0.000000 22.315518 9.473286 -16.120036 -0.551951 -4.758593 13.221457 -0.399447 -4.010237 -14.094149 -0.111348 2.138851 -5.890103 6.211088 4.402555 -10.229994 -0.772348 5.176867 0.264819 -3.455234 2.766357 6.648430 0.133641 -3.356291 -10.886990 -1.153681 -4.386062 9.657096 -0.688556 -2.216685 4.644993 0.000000 0.000000 0.000000 -1.671260 -8.362961 -44.831737 25.453266 -36.663585 8.559128 36.335912 13.174018 -43.308607 0.000000 0.000000 0.000000 -7.125000 0.000000 0.000000 -3.820406 79.442139 3.056585 0.000000 0.000000 0.000000 5.701174 2.541630 26.270336 -27.936915 -39.058117 -10.083884 -24.293370 15.667603 -5.075630 0.000000 0.000000 0.000000 7.125000 0.000000 0.000000 1.779684 24.414136 0.885277
-13.447115 17.659004 -0.229172 -55.711098 84.203369 -44.099310 0.000000 0.000000 0.000000 -13.269587 -1.987223 -11.734354 0.288353 3.452799 9.542051 0.658187 3.131311 -16.778226 0.059146 -1.563575 -4.300988 0.000000 0.000000 0.000000 23.063638 9.394555 -14.999717 -0.482937 -4.456009 12.363237 -0.390823 -4.085282 -14.025098 -0.016664 0.794779 -2.184527 6.041180 4.166568 -10.561083 -0.406689 4.834734 0.393042 -3.009313 2.593024 6.885402 -0.529938 -3.817210 -10.493504 -0.585791 -4.973366 8.970210 -0.431623 -2.496681 4.395849 0.000000 0.000000 0.000000 -2.164358 -7.425257 -44.391773 25.260908 -36.468918 8.444760 36.633526 13.270221 -43.158908 0.000000 0.000000 0.000000 -7.125000 0.000000 0.000000 -2.836775 79.411930 2.267576 0.000000 0.000000 0.000000 4.888141 2.107945 26.926747 -27.738939 -38.874770 -9.959415 -24.093832 15.645499 -4.975848 0.000000 0.000000 0.000000 7.125000 0.000000 0.000000 1.927399 24.531966 0.953635
-13.372346 17.650205 -0.086280 -60.694903 84.964079 -49.657444 0.000000 0.000000 0.000000 -13.234432 -2.310261 -11.287116 0.349460 3.798181 10.509487 0.693481 3.071530 -17.139354 0.104178 -2.081668 -5.731359 0.000000 0.000000 0.000000 23.360320 9.448151 -13.182098 -0.400848 -4.064938 11.259370 -0.408083 -4.630184 -14.662786 -0.013981 -0.762103 2.094284 5.754059 3.772429 -10.369302 -0.285569 4.346298 0.504544 -2.817649 2.342346 6.811573 -1.758684 -5.223633 -9.668079 0.427085 -6.799341 7.683693 -0.010476 -3.383189 4.362209 0.000000 0.000000 0.000000 -2.197510 -6.584653 -43.735404 23.536632 -34.670407 7.441308 36.376075 14.971867 -42.751399 0.000000 0.000000 0.000000 -7.125000 0.000000 0.000000 -2.656386 78.914775 2.096276 0.000000 0.000000 0.000000 4.576757 2.354496 26.240281 -27.384611 -38.543492 -9.737894 -24.307066 15.926263 -5.142381 0.000000 0.000000 0.000000 7.125000 0.000000 0.000000 1.770301 24.340417 0.883754
-13.291038 17.640990 0.053076 -69.618885 85.546523 -58.772113 0.000000 0.000000 0.000000 -12.969733 -3.489531 -11.359042 0.462250 4.359860 12.091452 0.746337 3.517132 -17.965352 0.181167 -2.741321 -7.559326 0.000000 0.000000 0.000000 23.754367 9.422273 -11.935844 -0.334624 -3.717079 10.282070 -0.416116 -5.083377 -15.117126 -0.076627 -1.780504 4.899489 5.848854 3.356045 -10.600756 -0.290059 3.764651 0.509429 -2.966101 2.063111 6.897139 -3.333036 -7.049098 -8.742042 1.803536 -9.189336 6.929469 0.593403 -4.547946 4.107128 0.000000 0.000000 0.000000 -2.312793 -5.789597 -40.754676 21.084310 -31.924360 6.095553 36.465365 18.563353 -42.349869 0.000000 0.000000 0.000000 -7.125000 0.000000 0.000000 -1.754285 78.553685 1.371442 0.000000 0.000000 0.000000 4.812797 2.659608 24.500186 -26.093497 -37.299871 -8.944628 -25.437495 16.503547 -4.391088 0.000000 0.000000 0.000000 7.125000 0.000000 0.000000 0.910763 25.119493 0.438128
